<?xml version="1.0" standalone="no"?>
<!DOCTYPE svg PUBLIC "-//W3C//DTD SVG 20010904//EN"
 "http://www.w3.org/TR/2001/REC-SVG-20010904/DTD/svg10.dtd">
<svg version="1.0" xmlns="http://www.w3.org/2000/svg"
 width="232.000000pt" height="232.000000pt" viewBox="0 0 232.000000 232.000000"
 preserveAspectRatio="xMidYMid meet">
<metadata>
Created by potrace 1.11, written by Peter Selinger 2001-2013
</metadata>
<g transform="translate(0.000000,232.000000) scale(0.100000,-0.100000)"
fill="#000000" stroke="none">
<path d="M1369 2196 c-2 -2 -35 -6 -73 -10 -38 -4 -79 -9 -90 -11 -12 -3 -33
-7 -47 -9 -59 -9 -229 -60 -314 -93 -241 -95 -716 -376 -702 -416 2 -7 -1 -19
-9 -27 -18 -22 49 -114 77 -105 13 5 26 -1 38 -16 l18 -22 44 27 c24 15 87 54
139 87 196 123 552 279 695 303 17 3 48 9 70 13 72 14 344 8 420 -9 210 -48
346 -155 376 -296 16 -75 16 -272 -1 -272 -3 0 -16 19 -29 43 -71 125 -210
256 -342 322 -118 60 -227 87 -359 88 -135 2 -189 -5 -289 -39 -210 -70 -383
-221 -484 -420 -30 -60 -71 -182 -69 -207 0 -10 -6 -21 -14 -24 -13 -5 -233
13 -286 23 -20 3 -23 -9 -8 -37 9 -16 7 -19 -8 -19 -18 0 -18 -4 -9 -44 9 -41
8 -47 -16 -76 -34 -40 -53 -80 -72 -155 -29 -113 -16 -169 57 -234 81 -73 206
-110 390 -116 l120 -3 65 -67 c104 -105 218 -175 348 -214 100 -29 118 -32
235 -36 145 -4 253 19 383 84 283 138 462 413 471 723 1 25 10 46 27 65 64 68
110 152 165 298 21 58 27 93 31 199 7 158 -4 211 -63 331 -46 93 -78 134 -155
198 -82 67 -252 134 -409 162 -38 7 -315 16 -321 11z m-934 -1396 c8 -41 15
-78 15 -82 0 -8 -109 17 -120 28 -5 5 11 39 38 77 26 38 48 65 49 60 1 -4 9
-42 18 -83z"/>
</g>
</svg>
